<svg width="1000" height="700" viewBox="0 0 1000 700" fill="none" xmlns="http://www.w3.org/2000/svg">
  <!-- Styles for standard wireframe look -->
  <style>
    .wireframe-line { stroke: #000000; stroke-width: 2; stroke-linecap: round; stroke-linejoin: round; }
    .wireframe-line-thin { stroke: #000000; stroke-width: 1.5; stroke-linecap: round; stroke-linejoin: round; }
    .wireframe-text { font-family: 'Inter', 'Arial', sans-serif; fill: #000000; }
    .wireframe-text-muted { font-family: 'Inter', 'Arial', sans-serif; fill: #666666; }
    .wireframe-text-code { font-family: 'Courier New', Courier, monospace; fill: #000000; }
  </style>

  <!-- Background Canvas -->
  <rect width="1000" height="700" fill="#FFFFFF" />

  <!-- Web Browser Window -->
  <rect x="20" y="20" width="960" height="660" rx="8" class="wireframe-line" />
  <!-- Browser Header Separator -->
  <line x1="20" y1="60" x2="980" y2="60" class="wireframe-line" />
  
  <!-- Browser Window Controls (3 dots) -->
  <circle cx="45" cy="40" r="6" class="wireframe-line-thin" />
  <circle cx="65" cy="40" r="6" class="wireframe-line-thin" />
  <circle cx="85" cy="40" r="6" class="wireframe-line-thin" />

  <!-- Address Bar -->
  <rect x="120" y="30" width="800" height="20" rx="4" class="wireframe-line-thin" />
  <text x="130" y="44" font-size="11" class="wireframe-text-code">http://localhost:8000/box</text>

  <!-- ================= SIDEBAR (Left) ================= -->
  <!-- Vertical Divider -->
  <line x1="220" y1="60" x2="220" y2="680" class="wireframe-line" />

  <!-- Sidebar Brand -->
  <!-- Circular Logo Placeholder -->
  <circle cx="120" cy="95" r="18" class="wireframe-line" />
  <line x1="107" y1="82" x2="133" y2="108" class="wireframe-line-thin" />
  <line x1="133" y1="82" x2="107" y2="108" class="wireframe-line-thin" />
  
  <text x="120" y="125" font-size="10" font-weight="bold" text-anchor="middle" class="wireframe-text">SISTEM INFORMASI ARSIP</text>
  <text x="120" y="137" font-size="8" font-weight="bold" text-anchor="middle" class="wireframe-text-muted">PT Bank Sumut</text>
  <!-- Orange Stripe Equivalent (Thicker Line) -->
  <line x1="20" y1="148" x2="220" y2="148" stroke="#000000" stroke-width="3" />

  <!-- Sidebar Navigation -->
  <!-- Section 1: Menu Utama -->
  <text x="35" y="172" font-size="8" font-weight="bold" class="wireframe-text-muted">MENU UTAMA</text>
  
  <!-- Dashboard -->
  <!-- Speedometer Icon -->
  <circle cx="38" cy="195" r="5" class="wireframe-line-thin" />
  <line x1="38" y1="195" x2="41" y2="191" class="wireframe-line-thin" />
  <text x="50" y="198" font-size="10" class="wireframe-text">Dashboard</text>

  <!-- Kelola Rak -->
  <!-- Archive Icon -->
  <rect x="33" y="218" width="10" height="8" rx="1" class="wireframe-line-thin" />
  <line x1="33" y1="222" x2="43" y2="222" class="wireframe-line-thin" />
  <text x="50" y="225" font-size="10" class="wireframe-text">Kelola Rak</text>

  <!-- Kelola Box (Active) -->
  <rect x="25" y="234" width="190" height="26" rx="4" class="wireframe-line-thin" />
  <line x1="25" y1="234" x2="25" y2="260" stroke="#000000" stroke-width="4" />
  <!-- Box Icon -->
  <rect x="33" y="244" width="10" height="8" rx="1.5" class="wireframe-line-thin" />
  <line x1="33" y1="244" x2="38" y2="248" class="wireframe-line-thin" />
  <line x1="43" y1="244" x2="38" y2="248" class="wireframe-line-thin" />
  <text x="50" y="251" font-size="10" font-weight="bold" class="wireframe-text">Kelola Box</text>

  <!-- Kelola Dokumen -->
  <!-- Document Icon -->
  <rect x="34" y="269" width="8" height="10" rx="1" class="wireframe-line-thin" />
  <line x1="36" y1="273" x2="40" y2="273" class="wireframe-line-thin" />
  <line x1="36" y1="276" x2="40" y2="276" class="wireframe-line-thin" />
  <text x="50" y="277" font-size="10" class="wireframe-text">Kelola Dokumen</text>

  <!-- Section 2: Fitur -->
  <text x="35" y="306" font-size="8" font-weight="bold" class="wireframe-text-muted">FITUR</text>
  
  <!-- Cari Dokumen -->
  <!-- Search Icon -->
  <circle cx="37" cy="320" r="3.5" class="wireframe-line-thin" />
  <line x1="39.5" y1="322.5" x2="43" y2="326" class="wireframe-line-thin" />
  <text x="50" y="324" font-size="10" class="wireframe-text">Cari Dokumen</text>

  <!-- Retensi Dokumen -->
  <!-- Clock Icon -->
  <circle cx="38" cy="346" r="4.5" class="wireframe-line-thin" />
  <line x1="38" y1="343" x2="38" y2="346" class="wireframe-line-thin" />
  <line x1="38" y1="346" x2="41" y2="346" class="wireframe-line-thin" />
  <text x="50" y="350" font-size="10" class="wireframe-text">Retensi Dokumen</text>

  <!-- Notifikasi -->
  <!-- Bell Icon -->
  <path d="M 38,370 C 35,370 35,376 35,376 H 41 C 41,376 41,370 38,370 Z" class="wireframe-line-thin" />
  <circle cx="38" cy="377" r="1" class="wireframe-line-thin" />
  <text x="50" y="376" font-size="10" class="wireframe-text">Notifikasi</text>

  <!-- Section 3: Pengaturan -->
  <text x="35" y="405" font-size="8" font-weight="bold" class="wireframe-text-muted">PENGATURAN</text>
  
  <!-- Manajemen User -->
  <!-- Users Icon -->
  <circle cx="35" cy="417" r="2.5" class="wireframe-line-thin" />
  <path d="M 31,424 C 31,421 39,421 39,424" class="wireframe-line-thin" />
  <circle cx="41" cy="417" r="2" class="wireframe-line-thin" />
  <text x="50" y="422" font-size="10" class="wireframe-text">Manajemen User</text>

  <!-- Sidebar Logout -->
  <line x1="20" y1="620" x2="220" y2="620" class="wireframe-line-thin" />
  <rect x="35" y="632" width="150" height="30" rx="6" class="wireframe-line-thin" />
  <!-- Logout icon -->
  <rect x="50" y="642" width="8" height="10" rx="1.5" class="wireframe-line-thin" />
  <path d="M 54,642 H 60 V 652 H 54" class="wireframe-line-thin" />
  <path d="M 52,647 H 57 L 55,645 M 57,647 L 55,649" class="wireframe-line-thin" />
  <text x="105" y="651" font-size="10" font-weight="bold" text-anchor="middle" class="wireframe-text">Logout</text>


  <!-- ================= MAIN CONTENT (Right) ================= -->
  
  <!-- Topbar -->
  <rect x="240" y="80" width="720" height="50" rx="8" class="wireframe-line-thin" />
  <text x="255" y="103" font-size="13" font-weight="bold" class="wireframe-text">Kelola Box</text>
  <text x="255" y="118" font-size="9" class="wireframe-text-muted">Daftar penyimpanan box arsip berkas</text>
  
  <!-- Add Box Button -->
  <rect x="830" y="90" width="110" height="30" rx="6" class="wireframe-line" />
  <!-- Plus Icon in button -->
  <line x1="845" y1="105" x2="853" y2="105" class="wireframe-line-thin" />
  <line x1="849" y1="101" x2="849" y2="109" class="wireframe-line-thin" />
  <text x="892" y="109" font-size="10" font-weight="bold" text-anchor="middle" class="wireframe-text">Tambah Box</text>


  <!-- Grid of Cards (Row 1) -->
  
  <!-- Card 1: BOX-001 (4% Filled) -->
  <rect x="240" y="160" width="220" height="220" rx="10" class="wireframe-line-thin" />
  <!-- Box Icon in Card -->
  <rect x="255" y="175" width="36" height="36" rx="6" fill="#F5F5F5" class="wireframe-line-thin" />
  <rect x="263" y="185" width="20" height="15" rx="1.5" class="wireframe-line-thin" />
  <line x1="263" y1="189" x2="283" y2="189" class="wireframe-line-thin" />
  <!-- Rak Badge -->
  <rect x="370" y="175" width="75" height="18" rx="9" fill="#F5F5F5" class="wireframe-line-thin" />
  <text x="407.5" y="187" font-size="8" font-weight="bold" text-anchor="middle" class="wireframe-text">Rak: RAK-001</text>
  
  <text x="255" y="230" font-size="11" font-weight="bold" class="wireframe-text-muted">[Nama Box]</text>
  <!-- Barcode Icon & Text -->
  <line x1="255" y1="240" x2="255" y2="249" class="wireframe-line-thin" stroke-width="2" />
  <line x1="258" y1="240" x2="258" y2="249" class="wireframe-line-thin" />
  <line x1="261" y1="240" x2="261" y2="249" class="wireframe-line-thin" stroke-width="2" />
  <line x1="264" y1="240" x2="264" y2="249" class="wireframe-line-thin" />
  <line x1="267" y1="240" x2="267" y2="249" class="wireframe-line-thin" stroke-width="1.5" />
  <text x="274" y="248" font-size="8.5" class="wireframe-text-code">BOX-001</text>

  <!-- Capacity Progress Bar -->
  <text x="255" y="272" font-size="8.5" class="wireframe-text-muted">Kapasitas Isi</text>
  <text x="445" y="272" font-size="8.5" font-weight="bold" text-anchor="end" class="wireframe-text">2 / 50 Dokumen</text>
  <rect x="255" y="280" width="190" height="8" rx="4" fill="#F0F0F0" class="wireframe-line-thin" />
  <rect x="255" y="280" width="7.6" height="8" rx="4" fill="#000000" />

  <!-- Card 1 Footer -->
  <line x1="240" y1="326" x2="460" y2="326" class="wireframe-line-thin" />
  <!-- Fullness Badge -->
  <rect x="255" y="337" width="55" height="18" rx="4" fill="#F5F5F5" class="wireframe-line-thin" />
  <text x="282.5" y="349" font-size="8" font-weight="bold" text-anchor="middle" class="wireframe-text">4% Penuh</text>
  <!-- Action Buttons -->
  <rect x="385" y="335" width="28" height="22" rx="4" fill="#FFFFFF" class="wireframe-line-thin" />
  <path d="M 395,348 L 401,342 L 403,344 L 397,350 Z" class="wireframe-line-thin" />
  <rect x="417" y="335" width="28" height="22" rx="4" fill="#FFFFFF" class="wireframe-line-thin" />
  <rect x="424" y="342" width="14" height="10" rx="1" class="wireframe-line-thin" />
  <line x1="422" y1="342" x2="440" y2="342" class="wireframe-line-thin" />


  <!-- Card 2: BOX-002 (0% Filled) -->
  <rect x="480" y="160" width="220" height="220" rx="10" class="wireframe-line-thin" />
  <rect x="495" y="175" width="36" height="36" rx="6" fill="#F5F5F5" class="wireframe-line-thin" />
  <rect x="503" y="185" width="20" height="15" rx="1.5" class="wireframe-line-thin" />
  <line x1="503" y1="189" x2="523" y2="189" class="wireframe-line-thin" />
  <rect x="610" y="175" width="75" height="18" rx="9" fill="#F5F5F5" class="wireframe-line-thin" />
  <text x="647.5" y="187" font-size="8" font-weight="bold" text-anchor="middle" class="wireframe-text">Rak: RAK-001</text>
  
  <text x="495" y="230" font-size="11" font-weight="bold" class="wireframe-text-muted">[Nama Box]</text>
  <line x1="495" y1="240" x2="495" y2="249" class="wireframe-line-thin" stroke-width="2" />
  <line x1="498" y1="240" x2="498" y2="249" class="wireframe-line-thin" />
  <line x1="501" y1="240" x2="501" y2="249" class="wireframe-line-thin" stroke-width="2" />
  <line x1="504" y1="240" x2="504" y2="249" class="wireframe-line-thin" />
  <line x1="507" y1="240" x2="507" y2="249" class="wireframe-line-thin" stroke-width="1.5" />
  <text x="514" y="248" font-size="8.5" class="wireframe-text-code">BOX-002</text>

  <text x="495" y="272" font-size="8.5" class="wireframe-text-muted">Kapasitas Isi</text>
  <text x="685" y="272" font-size="8.5" font-weight="bold" text-anchor="end" class="wireframe-text">0 / 50 Dokumen</text>
  <rect x="495" y="280" width="190" height="8" rx="4" fill="#F0F0F0" class="wireframe-line-thin" />

  <line x1="480" y1="326" x2="700" y2="326" class="wireframe-line-thin" />
  <rect x="495" y="337" width="55" height="18" rx="4" fill="#F5F5F5" class="wireframe-line-thin" />
  <text x="522.5" y="349" font-size="8" font-weight="bold" text-anchor="middle" class="wireframe-text">0% Penuh</text>
  <rect x="625" y="335" width="28" height="22" rx="4" fill="#FFFFFF" class="wireframe-line-thin" />
  <path d="M 635,348 L 641,342 L 643,344 L 637,350 Z" class="wireframe-line-thin" />
  <rect x="657" y="335" width="28" height="22" rx="4" fill="#FFFFFF" class="wireframe-line-thin" />
  <rect x="664" y="342" width="14" height="10" rx="1" class="wireframe-line-thin" />
  <line x1="662" y1="342" x2="680" y2="342" class="wireframe-line-thin" />


  <!-- Card 3: BOX-003 (0% Filled) -->
  <rect x="720" y="160" width="220" height="220" rx="10" class="wireframe-line-thin" />
  <rect x="735" y="175" width="36" height="36" rx="6" fill="#F5F5F5" class="wireframe-line-thin" />
  <rect x="743" y="185" width="20" height="15" rx="1.5" class="wireframe-line-thin" />
  <line x1="743" y1="189" x2="763" y2="189" class="wireframe-line-thin" />
  <rect x="850" y="175" width="75" height="18" rx="9" fill="#F5F5F5" class="wireframe-line-thin" />
  <text x="887.5" y="187" font-size="8" font-weight="bold" text-anchor="middle" class="wireframe-text">Rak: RAK-001</text>
  
  <text x="735" y="230" font-size="11" font-weight="bold" class="wireframe-text-muted">[Nama Box]</text>
  <line x1="735" y1="240" x2="735" y2="249" class="wireframe-line-thin" stroke-width="2" />
  <line x1="738" y1="240" x2="738" y2="249" class="wireframe-line-thin" />
  <line x1="741" y1="240" x2="741" y2="249" class="wireframe-line-thin" stroke-width="2" />
  <line x1="744" y1="240" x2="744" y2="249" class="wireframe-line-thin" />
  <line x1="747" y1="240" x2="747" y2="249" class="wireframe-line-thin" stroke-width="1.5" />
  <text x="754" y="248" font-size="8.5" class="wireframe-text-code">BOX-003</text>

  <text x="735" y="272" font-size="8.5" class="wireframe-text-muted">Kapasitas Isi</text>
  <text x="925" y="272" font-size="8.5" font-weight="bold" text-anchor="end" class="wireframe-text">0 / 50 Dokumen</text>
  <rect x="735" y="280" width="190" height="8" rx="4" fill="#F0F0F0" class="wireframe-line-thin" />

  <line x1="720" y1="326" x2="940" y2="326" class="wireframe-line-thin" />
  <rect x="735" y="337" width="55" height="18" rx="4" fill="#F5F5F5" class="wireframe-line-thin" />
  <text x="762.5" y="349" font-size="8" font-weight="bold" text-anchor="middle" class="wireframe-text">0% Penuh</text>
  <rect x="865" y="335" width="28" height="22" rx="4" fill="#FFFFFF" class="wireframe-line-thin" />
  <path d="M 875,348 L 881,342 L 883,344 L 877,350 Z" class="wireframe-line-thin" />
  <rect x="897" y="335" width="28" height="22" rx="4" fill="#FFFFFF" class="wireframe-line-thin" />
  <rect x="904" y="342" width="14" height="10" rx="1" class="wireframe-line-thin" />
  <line x1="902" y1="342" x2="920" y2="342" class="wireframe-line-thin" />


  <!-- Grid of Cards (Row 2) -->
  
  <!-- Card 4: BOX-004 (0% Filled) -->
  <rect x="240" y="400" width="220" height="220" rx="10" class="wireframe-line-thin" />
  <!-- Box Icon in Card -->
  <rect x="255" y="415" width="36" height="36" rx="6" fill="#F5F5F5" class="wireframe-line-thin" />
  <rect x="263" y="425" width="20" height="15" rx="1.5" class="wireframe-line-thin" />
  <line x1="263" y1="429" x2="283" y2="429" class="wireframe-line-thin" />
  <!-- Rak Badge -->
  <rect x="370" y="415" width="75" height="18" rx="9" fill="#F5F5F5" class="wireframe-line-thin" />
  <text x="407.5" y="427" font-size="8" font-weight="bold" text-anchor="middle" class="wireframe-text">Rak: RAK-002</text>
  
  <text x="255" y="470" font-size="11" font-weight="bold" class="wireframe-text-muted">[Nama Box]</text>
  <!-- Barcode Icon & Text -->
  <line x1="255" y1="480" x2="255" y2="489" class="wireframe-line-thin" stroke-width="2" />
  <line x1="258" y1="480" x2="258" y2="489" class="wireframe-line-thin" />
  <line x1="261" y1="480" x2="261" y2="489" class="wireframe-line-thin" stroke-width="2" />
  <line x1="264" y1="480" x2="264" y2="489" class="wireframe-line-thin" />
  <line x1="267" y1="480" x2="267" y2="489" class="wireframe-line-thin" stroke-width="1.5" />
  <text x="274" y="488" font-size="8.5" class="wireframe-text-code">BOX-004</text>

  <!-- Capacity Progress Bar -->
  <text x="255" y="512" font-size="8.5" class="wireframe-text-muted">Kapasitas Isi</text>
  <text x="445" y="512" font-size="8.5" font-weight="bold" text-anchor="end" class="wireframe-text">0 / 50 Dokumen</text>
  <rect x="255" y="520" width="190" height="8" rx="4" fill="#F0F0F0" class="wireframe-line-thin" />

  <!-- Card 4 Footer -->
  <line x1="240" y1="566" x2="460" y2="566" class="wireframe-line-thin" />
  <!-- Fullness Badge -->
  <rect x="255" y="577" width="55" height="18" rx="4" fill="#F5F5F5" class="wireframe-line-thin" />
  <text x="282.5" y="589" font-size="8" font-weight="bold" text-anchor="middle" class="wireframe-text">0% Penuh</text>
  <!-- Action Buttons -->
  <rect x="385" y="575" width="28" height="22" rx="4" fill="#FFFFFF" class="wireframe-line-thin" />
  <path d="M 395,588 L 401,582 L 403,584 L 397,590 Z" class="wireframe-line-thin" />
  <rect x="417" y="575" width="28" height="22" rx="4" fill="#FFFFFF" class="wireframe-line-thin" />
  <rect x="424" y="582" width="14" height="10" rx="1" class="wireframe-line-thin" />
  <line x1="422" y1="582" x2="440" y2="582" class="wireframe-line-thin" />
</svg>
